G04 #@! TF.GenerationSoftware,KiCad,Pcbnew,(5.0.0-3-g5ebb6b6)*
G04 #@! TF.CreationDate,2019-01-02T17:07:25+01:00*
G04 #@! TF.ProjectId,lpkf-test,6C706B662D746573742E6B696361645F,rev?*
G04 #@! TF.SameCoordinates,Original*
G04 #@! TF.FileFunction,Copper,L1,Top,Signal*
G04 #@! TF.FilePolarity,Positive*
%FSLAX46Y46*%
G04 Gerber Fmt 4.6, Leading zero omitted, Abs format (unit mm)*
G04 Created by KiCad (PCBNEW (5.0.0-3-g5ebb6b6)) date Wednesday, January 02, 2019 at 05:07:25 PM*
%MOMM*%
%LPD*%
G01*
G04 APERTURE LIST*
G04 #@! TA.AperFunction,ComponentPad*
%ADD10R,1.700000X1.700000*%
G04 #@! TD*
G04 #@! TA.AperFunction,ComponentPad*
%ADD11O,1.700000X1.700000*%
G04 #@! TD*
G04 #@! TA.AperFunction,Conductor*
%ADD12C,0.100000*%
G04 #@! TD*
G04 #@! TA.AperFunction,SMDPad,CuDef*
%ADD13C,1.150000*%
G04 #@! TD*
G04 #@! TA.AperFunction,SMDPad,CuDef*
%ADD14C,0.950000*%
G04 #@! TD*
G04 #@! TA.AperFunction,SMDPad,CuDef*
%ADD15C,0.590000*%
G04 #@! TD*
G04 #@! TA.AperFunction,SMDPad,CuDef*
%ADD16C,0.400000*%
G04 #@! TD*
G04 #@! TA.AperFunction,Conductor*
%ADD17C,0.508000*%
G04 #@! TD*
G04 #@! TA.AperFunction,Conductor*
%ADD18C,0.254000*%
G04 #@! TD*
G04 #@! TA.AperFunction,Conductor*
%ADD19C,0.203200*%
G04 #@! TD*
G04 #@! TA.AperFunction,Conductor*
%ADD20C,0.152400*%
G04 #@! TD*
G04 APERTURE END LIST*
D10*
G04 #@! TO.P,J1,1*
G04 #@! TO.N,Net-(J1-Pad1)*
X124460000Y-89662000D03*
D11*
G04 #@! TO.P,J1,2*
G04 #@! TO.N,Net-(J1-Pad2)*
X124460000Y-92202000D03*
G04 #@! TO.P,J1,3*
G04 #@! TO.N,Net-(J1-Pad3)*
X124460000Y-94742000D03*
G04 #@! TO.P,J1,4*
G04 #@! TO.N,Net-(J1-Pad4)*
X124460000Y-97282000D03*
G04 #@! TD*
D12*
G04 #@! TO.N,Net-(J1-Pad1)*
G04 #@! TO.C,R1*
G36*
X114912505Y-87185204D02*
X114936773Y-87188804D01*
X114960572Y-87194765D01*
X114983671Y-87203030D01*
X115005850Y-87213520D01*
X115026893Y-87226132D01*
X115046599Y-87240747D01*
X115064777Y-87257223D01*
X115081253Y-87275401D01*
X115095868Y-87295107D01*
X115108480Y-87316150D01*
X115118970Y-87338329D01*
X115127235Y-87361428D01*
X115133196Y-87385227D01*
X115136796Y-87409495D01*
X115138000Y-87433999D01*
X115138000Y-88334001D01*
X115136796Y-88358505D01*
X115133196Y-88382773D01*
X115127235Y-88406572D01*
X115118970Y-88429671D01*
X115108480Y-88451850D01*
X115095868Y-88472893D01*
X115081253Y-88492599D01*
X115064777Y-88510777D01*
X115046599Y-88527253D01*
X115026893Y-88541868D01*
X115005850Y-88554480D01*
X114983671Y-88564970D01*
X114960572Y-88573235D01*
X114936773Y-88579196D01*
X114912505Y-88582796D01*
X114888001Y-88584000D01*
X114237999Y-88584000D01*
X114213495Y-88582796D01*
X114189227Y-88579196D01*
X114165428Y-88573235D01*
X114142329Y-88564970D01*
X114120150Y-88554480D01*
X114099107Y-88541868D01*
X114079401Y-88527253D01*
X114061223Y-88510777D01*
X114044747Y-88492599D01*
X114030132Y-88472893D01*
X114017520Y-88451850D01*
X114007030Y-88429671D01*
X113998765Y-88406572D01*
X113992804Y-88382773D01*
X113989204Y-88358505D01*
X113988000Y-88334001D01*
X113988000Y-87433999D01*
X113989204Y-87409495D01*
X113992804Y-87385227D01*
X113998765Y-87361428D01*
X114007030Y-87338329D01*
X114017520Y-87316150D01*
X114030132Y-87295107D01*
X114044747Y-87275401D01*
X114061223Y-87257223D01*
X114079401Y-87240747D01*
X114099107Y-87226132D01*
X114120150Y-87213520D01*
X114142329Y-87203030D01*
X114165428Y-87194765D01*
X114189227Y-87188804D01*
X114213495Y-87185204D01*
X114237999Y-87184000D01*
X114888001Y-87184000D01*
X114912505Y-87185204D01*
X114912505Y-87185204D01*
G37*
D13*
G04 #@! TD*
G04 #@! TO.P,R1,1*
G04 #@! TO.N,Net-(J1-Pad1)*
X114563000Y-87884000D03*
D12*
G04 #@! TO.N,N/C*
G04 #@! TO.C,R1*
G36*
X112862505Y-87185204D02*
X112886773Y-87188804D01*
X112910572Y-87194765D01*
X112933671Y-87203030D01*
X112955850Y-87213520D01*
X112976893Y-87226132D01*
X112996599Y-87240747D01*
X113014777Y-87257223D01*
X113031253Y-87275401D01*
X113045868Y-87295107D01*
X113058480Y-87316150D01*
X113068970Y-87338329D01*
X113077235Y-87361428D01*
X113083196Y-87385227D01*
X113086796Y-87409495D01*
X113088000Y-87433999D01*
X113088000Y-88334001D01*
X113086796Y-88358505D01*
X113083196Y-88382773D01*
X113077235Y-88406572D01*
X113068970Y-88429671D01*
X113058480Y-88451850D01*
X113045868Y-88472893D01*
X113031253Y-88492599D01*
X113014777Y-88510777D01*
X112996599Y-88527253D01*
X112976893Y-88541868D01*
X112955850Y-88554480D01*
X112933671Y-88564970D01*
X112910572Y-88573235D01*
X112886773Y-88579196D01*
X112862505Y-88582796D01*
X112838001Y-88584000D01*
X112187999Y-88584000D01*
X112163495Y-88582796D01*
X112139227Y-88579196D01*
X112115428Y-88573235D01*
X112092329Y-88564970D01*
X112070150Y-88554480D01*
X112049107Y-88541868D01*
X112029401Y-88527253D01*
X112011223Y-88510777D01*
X111994747Y-88492599D01*
X111980132Y-88472893D01*
X111967520Y-88451850D01*
X111957030Y-88429671D01*
X111948765Y-88406572D01*
X111942804Y-88382773D01*
X111939204Y-88358505D01*
X111938000Y-88334001D01*
X111938000Y-87433999D01*
X111939204Y-87409495D01*
X111942804Y-87385227D01*
X111948765Y-87361428D01*
X111957030Y-87338329D01*
X111967520Y-87316150D01*
X111980132Y-87295107D01*
X111994747Y-87275401D01*
X112011223Y-87257223D01*
X112029401Y-87240747D01*
X112049107Y-87226132D01*
X112070150Y-87213520D01*
X112092329Y-87203030D01*
X112115428Y-87194765D01*
X112139227Y-87188804D01*
X112163495Y-87185204D01*
X112187999Y-87184000D01*
X112838001Y-87184000D01*
X112862505Y-87185204D01*
X112862505Y-87185204D01*
G37*
D13*
G04 #@! TD*
G04 #@! TO.P,R1,2*
G04 #@! TO.N,N/C*
X112513000Y-87884000D03*
D12*
G04 #@! TO.N,Net-(J1-Pad2)*
G04 #@! TO.C,R2*
G36*
X114723779Y-91582144D02*
X114746834Y-91585563D01*
X114769443Y-91591227D01*
X114791387Y-91599079D01*
X114812457Y-91609044D01*
X114832448Y-91621026D01*
X114851168Y-91634910D01*
X114868438Y-91650562D01*
X114884090Y-91667832D01*
X114897974Y-91686552D01*
X114909956Y-91706543D01*
X114919921Y-91727613D01*
X114927773Y-91749557D01*
X114933437Y-91772166D01*
X114936856Y-91795221D01*
X114938000Y-91818500D01*
X114938000Y-92293500D01*
X114936856Y-92316779D01*
X114933437Y-92339834D01*
X114927773Y-92362443D01*
X114919921Y-92384387D01*
X114909956Y-92405457D01*
X114897974Y-92425448D01*
X114884090Y-92444168D01*
X114868438Y-92461438D01*
X114851168Y-92477090D01*
X114832448Y-92490974D01*
X114812457Y-92502956D01*
X114791387Y-92512921D01*
X114769443Y-92520773D01*
X114746834Y-92526437D01*
X114723779Y-92529856D01*
X114700500Y-92531000D01*
X114125500Y-92531000D01*
X114102221Y-92529856D01*
X114079166Y-92526437D01*
X114056557Y-92520773D01*
X114034613Y-92512921D01*
X114013543Y-92502956D01*
X113993552Y-92490974D01*
X113974832Y-92477090D01*
X113957562Y-92461438D01*
X113941910Y-92444168D01*
X113928026Y-92425448D01*
X113916044Y-92405457D01*
X113906079Y-92384387D01*
X113898227Y-92362443D01*
X113892563Y-92339834D01*
X113889144Y-92316779D01*
X113888000Y-92293500D01*
X113888000Y-91818500D01*
X113889144Y-91795221D01*
X113892563Y-91772166D01*
X113898227Y-91749557D01*
X113906079Y-91727613D01*
X113916044Y-91706543D01*
X113928026Y-91686552D01*
X113941910Y-91667832D01*
X113957562Y-91650562D01*
X113974832Y-91634910D01*
X113993552Y-91621026D01*
X114013543Y-91609044D01*
X114034613Y-91599079D01*
X114056557Y-91591227D01*
X114079166Y-91585563D01*
X114102221Y-91582144D01*
X114125500Y-91581000D01*
X114700500Y-91581000D01*
X114723779Y-91582144D01*
X114723779Y-91582144D01*
G37*
D14*
G04 #@! TD*
G04 #@! TO.P,R2,1*
G04 #@! TO.N,Net-(J1-Pad2)*
X114413000Y-92056000D03*
D12*
G04 #@! TO.N,N/C*
G04 #@! TO.C,R2*
G36*
X112973779Y-91582144D02*
X112996834Y-91585563D01*
X113019443Y-91591227D01*
X113041387Y-91599079D01*
X113062457Y-91609044D01*
X113082448Y-91621026D01*
X113101168Y-91634910D01*
X113118438Y-91650562D01*
X113134090Y-91667832D01*
X113147974Y-91686552D01*
X113159956Y-91706543D01*
X113169921Y-91727613D01*
X113177773Y-91749557D01*
X113183437Y-91772166D01*
X113186856Y-91795221D01*
X113188000Y-91818500D01*
X113188000Y-92293500D01*
X113186856Y-92316779D01*
X113183437Y-92339834D01*
X113177773Y-92362443D01*
X113169921Y-92384387D01*
X113159956Y-92405457D01*
X113147974Y-92425448D01*
X113134090Y-92444168D01*
X113118438Y-92461438D01*
X113101168Y-92477090D01*
X113082448Y-92490974D01*
X113062457Y-92502956D01*
X113041387Y-92512921D01*
X113019443Y-92520773D01*
X112996834Y-92526437D01*
X112973779Y-92529856D01*
X112950500Y-92531000D01*
X112375500Y-92531000D01*
X112352221Y-92529856D01*
X112329166Y-92526437D01*
X112306557Y-92520773D01*
X112284613Y-92512921D01*
X112263543Y-92502956D01*
X112243552Y-92490974D01*
X112224832Y-92477090D01*
X112207562Y-92461438D01*
X112191910Y-92444168D01*
X112178026Y-92425448D01*
X112166044Y-92405457D01*
X112156079Y-92384387D01*
X112148227Y-92362443D01*
X112142563Y-92339834D01*
X112139144Y-92316779D01*
X112138000Y-92293500D01*
X112138000Y-91818500D01*
X112139144Y-91795221D01*
X112142563Y-91772166D01*
X112148227Y-91749557D01*
X112156079Y-91727613D01*
X112166044Y-91706543D01*
X112178026Y-91686552D01*
X112191910Y-91667832D01*
X112207562Y-91650562D01*
X112224832Y-91634910D01*
X112243552Y-91621026D01*
X112263543Y-91609044D01*
X112284613Y-91599079D01*
X112306557Y-91591227D01*
X112329166Y-91585563D01*
X112352221Y-91582144D01*
X112375500Y-91581000D01*
X112950500Y-91581000D01*
X112973779Y-91582144D01*
X112973779Y-91582144D01*
G37*
D14*
G04 #@! TD*
G04 #@! TO.P,R2,2*
G04 #@! TO.N,N/C*
X112663000Y-92056000D03*
D12*
G04 #@! TO.N,Net-(J1-Pad3)*
G04 #@! TO.C,R3*
G36*
X114184958Y-95428710D02*
X114199276Y-95430834D01*
X114213317Y-95434351D01*
X114226946Y-95439228D01*
X114240031Y-95445417D01*
X114252447Y-95452858D01*
X114264073Y-95461481D01*
X114274798Y-95471202D01*
X114284519Y-95481927D01*
X114293142Y-95493553D01*
X114300583Y-95505969D01*
X114306772Y-95519054D01*
X114311649Y-95532683D01*
X114315166Y-95546724D01*
X114317290Y-95561042D01*
X114318000Y-95575500D01*
X114318000Y-95920500D01*
X114317290Y-95934958D01*
X114315166Y-95949276D01*
X114311649Y-95963317D01*
X114306772Y-95976946D01*
X114300583Y-95990031D01*
X114293142Y-96002447D01*
X114284519Y-96014073D01*
X114274798Y-96024798D01*
X114264073Y-96034519D01*
X114252447Y-96043142D01*
X114240031Y-96050583D01*
X114226946Y-96056772D01*
X114213317Y-96061649D01*
X114199276Y-96065166D01*
X114184958Y-96067290D01*
X114170500Y-96068000D01*
X113875500Y-96068000D01*
X113861042Y-96067290D01*
X113846724Y-96065166D01*
X113832683Y-96061649D01*
X113819054Y-96056772D01*
X113805969Y-96050583D01*
X113793553Y-96043142D01*
X113781927Y-96034519D01*
X113771202Y-96024798D01*
X113761481Y-96014073D01*
X113752858Y-96002447D01*
X113745417Y-95990031D01*
X113739228Y-95976946D01*
X113734351Y-95963317D01*
X113730834Y-95949276D01*
X113728710Y-95934958D01*
X113728000Y-95920500D01*
X113728000Y-95575500D01*
X113728710Y-95561042D01*
X113730834Y-95546724D01*
X113734351Y-95532683D01*
X113739228Y-95519054D01*
X113745417Y-95505969D01*
X113752858Y-95493553D01*
X113761481Y-95481927D01*
X113771202Y-95471202D01*
X113781927Y-95461481D01*
X113793553Y-95452858D01*
X113805969Y-95445417D01*
X113819054Y-95439228D01*
X113832683Y-95434351D01*
X113846724Y-95430834D01*
X113861042Y-95428710D01*
X113875500Y-95428000D01*
X114170500Y-95428000D01*
X114184958Y-95428710D01*
X114184958Y-95428710D01*
G37*
D15*
G04 #@! TD*
G04 #@! TO.P,R3,1*
G04 #@! TO.N,Net-(J1-Pad3)*
X114023000Y-95748000D03*
D12*
G04 #@! TO.N,N/C*
G04 #@! TO.C,R3*
G36*
X113214958Y-95428710D02*
X113229276Y-95430834D01*
X113243317Y-95434351D01*
X113256946Y-95439228D01*
X113270031Y-95445417D01*
X113282447Y-95452858D01*
X113294073Y-95461481D01*
X113304798Y-95471202D01*
X113314519Y-95481927D01*
X113323142Y-95493553D01*
X113330583Y-95505969D01*
X113336772Y-95519054D01*
X113341649Y-95532683D01*
X113345166Y-95546724D01*
X113347290Y-95561042D01*
X113348000Y-95575500D01*
X113348000Y-95920500D01*
X113347290Y-95934958D01*
X113345166Y-95949276D01*
X113341649Y-95963317D01*
X113336772Y-95976946D01*
X113330583Y-95990031D01*
X113323142Y-96002447D01*
X113314519Y-96014073D01*
X113304798Y-96024798D01*
X113294073Y-96034519D01*
X113282447Y-96043142D01*
X113270031Y-96050583D01*
X113256946Y-96056772D01*
X113243317Y-96061649D01*
X113229276Y-96065166D01*
X113214958Y-96067290D01*
X113200500Y-96068000D01*
X112905500Y-96068000D01*
X112891042Y-96067290D01*
X112876724Y-96065166D01*
X112862683Y-96061649D01*
X112849054Y-96056772D01*
X112835969Y-96050583D01*
X112823553Y-96043142D01*
X112811927Y-96034519D01*
X112801202Y-96024798D01*
X112791481Y-96014073D01*
X112782858Y-96002447D01*
X112775417Y-95990031D01*
X112769228Y-95976946D01*
X112764351Y-95963317D01*
X112760834Y-95949276D01*
X112758710Y-95934958D01*
X112758000Y-95920500D01*
X112758000Y-95575500D01*
X112758710Y-95561042D01*
X112760834Y-95546724D01*
X112764351Y-95532683D01*
X112769228Y-95519054D01*
X112775417Y-95505969D01*
X112782858Y-95493553D01*
X112791481Y-95481927D01*
X112801202Y-95471202D01*
X112811927Y-95461481D01*
X112823553Y-95452858D01*
X112835969Y-95445417D01*
X112849054Y-95439228D01*
X112862683Y-95434351D01*
X112876724Y-95430834D01*
X112891042Y-95428710D01*
X112905500Y-95428000D01*
X113200500Y-95428000D01*
X113214958Y-95428710D01*
X113214958Y-95428710D01*
G37*
D15*
G04 #@! TD*
G04 #@! TO.P,R3,2*
G04 #@! TO.N,N/C*
X113053000Y-95748000D03*
D12*
G04 #@! TO.N,Net-(J1-Pad4)*
G04 #@! TO.C,R4*
G36*
X113997802Y-98860482D02*
X114007509Y-98861921D01*
X114017028Y-98864306D01*
X114026268Y-98867612D01*
X114035140Y-98871808D01*
X114043557Y-98876853D01*
X114051439Y-98882699D01*
X114058711Y-98889289D01*
X114065301Y-98896561D01*
X114071147Y-98904443D01*
X114076192Y-98912860D01*
X114080388Y-98921732D01*
X114083694Y-98930972D01*
X114086079Y-98940491D01*
X114087518Y-98950198D01*
X114088000Y-98960000D01*
X114088000Y-99160000D01*
X114087518Y-99169802D01*
X114086079Y-99179509D01*
X114083694Y-99189028D01*
X114080388Y-99198268D01*
X114076192Y-99207140D01*
X114071147Y-99215557D01*
X114065301Y-99223439D01*
X114058711Y-99230711D01*
X114051439Y-99237301D01*
X114043557Y-99243147D01*
X114035140Y-99248192D01*
X114026268Y-99252388D01*
X114017028Y-99255694D01*
X114007509Y-99258079D01*
X113997802Y-99259518D01*
X113988000Y-99260000D01*
X113728000Y-99260000D01*
X113718198Y-99259518D01*
X113708491Y-99258079D01*
X113698972Y-99255694D01*
X113689732Y-99252388D01*
X113680860Y-99248192D01*
X113672443Y-99243147D01*
X113664561Y-99237301D01*
X113657289Y-99230711D01*
X113650699Y-99223439D01*
X113644853Y-99215557D01*
X113639808Y-99207140D01*
X113635612Y-99198268D01*
X113632306Y-99189028D01*
X113629921Y-99179509D01*
X113628482Y-99169802D01*
X113628000Y-99160000D01*
X113628000Y-98960000D01*
X113628482Y-98950198D01*
X113629921Y-98940491D01*
X113632306Y-98930972D01*
X113635612Y-98921732D01*
X113639808Y-98912860D01*
X113644853Y-98904443D01*
X113650699Y-98896561D01*
X113657289Y-98889289D01*
X113664561Y-98882699D01*
X113672443Y-98876853D01*
X113680860Y-98871808D01*
X113689732Y-98867612D01*
X113698972Y-98864306D01*
X113708491Y-98861921D01*
X113718198Y-98860482D01*
X113728000Y-98860000D01*
X113988000Y-98860000D01*
X113997802Y-98860482D01*
X113997802Y-98860482D01*
G37*
D16*
G04 #@! TD*
G04 #@! TO.P,R4,1*
G04 #@! TO.N,Net-(J1-Pad4)*
X113858000Y-99060000D03*
D12*
G04 #@! TO.N,N/C*
G04 #@! TO.C,R4*
G36*
X113357802Y-98860482D02*
X113367509Y-98861921D01*
X113377028Y-98864306D01*
X113386268Y-98867612D01*
X113395140Y-98871808D01*
X113403557Y-98876853D01*
X113411439Y-98882699D01*
X113418711Y-98889289D01*
X113425301Y-98896561D01*
X113431147Y-98904443D01*
X113436192Y-98912860D01*
X113440388Y-98921732D01*
X113443694Y-98930972D01*
X113446079Y-98940491D01*
X113447518Y-98950198D01*
X113448000Y-98960000D01*
X113448000Y-99160000D01*
X113447518Y-99169802D01*
X113446079Y-99179509D01*
X113443694Y-99189028D01*
X113440388Y-99198268D01*
X113436192Y-99207140D01*
X113431147Y-99215557D01*
X113425301Y-99223439D01*
X113418711Y-99230711D01*
X113411439Y-99237301D01*
X113403557Y-99243147D01*
X113395140Y-99248192D01*
X113386268Y-99252388D01*
X113377028Y-99255694D01*
X113367509Y-99258079D01*
X113357802Y-99259518D01*
X113348000Y-99260000D01*
X113088000Y-99260000D01*
X113078198Y-99259518D01*
X113068491Y-99258079D01*
X113058972Y-99255694D01*
X113049732Y-99252388D01*
X113040860Y-99248192D01*
X113032443Y-99243147D01*
X113024561Y-99237301D01*
X113017289Y-99230711D01*
X113010699Y-99223439D01*
X113004853Y-99215557D01*
X112999808Y-99207140D01*
X112995612Y-99198268D01*
X112992306Y-99189028D01*
X112989921Y-99179509D01*
X112988482Y-99169802D01*
X112988000Y-99160000D01*
X112988000Y-98960000D01*
X112988482Y-98950198D01*
X112989921Y-98940491D01*
X112992306Y-98930972D01*
X112995612Y-98921732D01*
X112999808Y-98912860D01*
X113004853Y-98904443D01*
X113010699Y-98896561D01*
X113017289Y-98889289D01*
X113024561Y-98882699D01*
X113032443Y-98876853D01*
X113040860Y-98871808D01*
X113049732Y-98867612D01*
X113058972Y-98864306D01*
X113068491Y-98861921D01*
X113078198Y-98860482D01*
X113088000Y-98860000D01*
X113348000Y-98860000D01*
X113357802Y-98860482D01*
X113357802Y-98860482D01*
G37*
D16*
G04 #@! TD*
G04 #@! TO.P,R4,2*
G04 #@! TO.N,N/C*
X113218000Y-99060000D03*
D17*
G04 #@! TO.N,Net-(J1-Pad1)*
X116341000Y-89662000D02*
X114563000Y-87884000D01*
X124460000Y-89662000D02*
X116341000Y-89662000D01*
D18*
G04 #@! TO.N,Net-(J1-Pad2)*
X124314000Y-92056000D02*
X124460000Y-92202000D01*
X114413000Y-92056000D02*
X124314000Y-92056000D01*
D19*
G04 #@! TO.N,Net-(J1-Pad3)*
X123454000Y-95748000D02*
X124460000Y-94742000D01*
X114023000Y-95748000D02*
X123454000Y-95748000D01*
D20*
G04 #@! TO.N,Net-(J1-Pad4)*
X122682000Y-99060000D02*
X124460000Y-97282000D01*
X113858000Y-99060000D02*
X122682000Y-99060000D01*
G04 #@! TD*
M02*
