<?xml version="1.0" standalone="no"?>
 <!DOCTYPE svg PUBLIC "-//W3C//DTD SVG 1.1//EN" 
 "http://www.w3.org/Graphics/SVG/1.1/DTD/svg11.dtd"> 
<svg xmlns="http://www.w3.org/2000/svg" version="1.1" 
    width="3.42646cm" height="2.47396cm" viewBox="0 0 13490 9740 ">
<title>SVG Picture created as nrf24-breakout-brd.svg date 2016/12/04 23:46:13 </title>
  <desc>Picture generated by PCBNEW </desc>
<g style="fill:#000000; fill-opacity:1;stroke:#000000; stroke-opacity:1;
stroke-linecap:round; stroke-linejoin:round; "
 transform="translate(0 0) scale(1 1)">
</g>
<g style="fill:#000000; fill-opacity:0.0; 
stroke:#000000; stroke-width:-0.000393701; stroke-opacity:1; 
stroke-linecap:round; stroke-linejoin:round;">
</g>
<g style="fill:#840000; fill-opacity:0.0; 
stroke:#840000; stroke-width:-0.000393701; stroke-opacity:1; 
stroke-linecap:round; stroke-linejoin:round;">
</g>
<g style="fill:#840000; fill-opacity:0.0; 
stroke:#840000; stroke-width:0; stroke-opacity:1; 
stroke-linecap:round; stroke-linejoin:round;">
</g>
<g style="fill:#840000; fill-opacity:1.0; 
stroke:#840000; stroke-width:0; stroke-opacity:1; 
stroke-linecap:round; stroke-linejoin:round;">
<polyline style="fill-rule:evenodd;"
points="11111,1944
11111,1264
11911,1264
11911,1944
11111,1944
" /> 
</g>
<g style="fill:#840000; fill-opacity:1.0; 
stroke:#840000; stroke-width:680; stroke-opacity:1; 
stroke-linecap:round; stroke-linejoin:round;">
</g>
<g style="fill:#840000; fill-opacity:0.0; 
stroke:#840000; stroke-width:680; stroke-opacity:1; 
stroke-linecap:round; stroke-linejoin:round;">
<path d="M11451 2604
L11571 2604
" />
<path d="M11451 3604
L11571 3604
" />
<path d="M11451 4604
L11571 4604
" />
<path d="M11451 5604
L11571 5604
" />
<path d="M11451 6604
L11571 6604
" />
<path d="M11451 7604
L11571 7604
" />
<path d="M11451 8604
L11571 8604
" />
</g>
<g style="fill:#840000; fill-opacity:1.0; 
stroke:#840000; stroke-width:0; stroke-opacity:1; 
stroke-linecap:round; stroke-linejoin:round;">
<circle cx="7529.53" cy="5212.6" r="300" /> 
</g>
<g style="fill:#840000; fill-opacity:1.0; 
stroke:#840000; stroke-width:39.3701; stroke-opacity:1; 
stroke-linecap:round; stroke-linejoin:round;">
</g>
<g style="fill:#840000; fill-opacity:1.0; 
stroke:#840000; stroke-width:0; stroke-opacity:1; 
stroke-linecap:round; stroke-linejoin:round;">
<circle cx="7529.53" cy="4212.6" r="300" /> 
</g>
<g style="fill:#840000; fill-opacity:1.0; 
stroke:#840000; stroke-width:39.3701; stroke-opacity:1; 
stroke-linecap:round; stroke-linejoin:round;">
</g>
<g style="fill:#840000; fill-opacity:1.0; 
stroke:#840000; stroke-width:0; stroke-opacity:1; 
stroke-linecap:round; stroke-linejoin:round;">
<circle cx="7529.53" cy="3212.6" r="300" /> 
</g>
<g style="fill:#840000; fill-opacity:1.0; 
stroke:#840000; stroke-width:39.3701; stroke-opacity:1; 
stroke-linecap:round; stroke-linejoin:round;">
</g>
<g style="fill:#840000; fill-opacity:1.0; 
stroke:#840000; stroke-width:0; stroke-opacity:1; 
stroke-linecap:round; stroke-linejoin:round;">
<circle cx="6529.53" cy="3212.6" r="300" /> 
</g>
<g style="fill:#840000; fill-opacity:1.0; 
stroke:#840000; stroke-width:39.3701; stroke-opacity:1; 
stroke-linecap:round; stroke-linejoin:round;">
</g>
<g style="fill:#840000; fill-opacity:1.0; 
stroke:#840000; stroke-width:0; stroke-opacity:1; 
stroke-linecap:round; stroke-linejoin:round;">
<circle cx="6529.53" cy="4212.6" r="300" /> 
</g>
<g style="fill:#840000; fill-opacity:1.0; 
stroke:#840000; stroke-width:39.3701; stroke-opacity:1; 
stroke-linecap:round; stroke-linejoin:round;">
</g>
<g style="fill:#840000; fill-opacity:1.0; 
stroke:#840000; stroke-width:0; stroke-opacity:1; 
stroke-linecap:round; stroke-linejoin:round;">
<circle cx="6529.53" cy="5212.6" r="300" /> 
</g>
<g style="fill:#840000; fill-opacity:1.0; 
stroke:#840000; stroke-width:39.3701; stroke-opacity:1; 
stroke-linecap:round; stroke-linejoin:round;">
</g>
<g style="fill:#840000; fill-opacity:1.0; 
stroke:#840000; stroke-width:0; stroke-opacity:1; 
stroke-linecap:round; stroke-linejoin:round;">
<circle cx="6529.53" cy="6212.6" r="300" /> 
</g>
<g style="fill:#840000; fill-opacity:1.0; 
stroke:#840000; stroke-width:39.3701; stroke-opacity:1; 
stroke-linecap:round; stroke-linejoin:round;">
</g>
<g style="fill:#840000; fill-opacity:1.0; 
stroke:#840000; stroke-width:0; stroke-opacity:1; 
stroke-linecap:round; stroke-linejoin:round;">
<circle cx="7529.53" cy="6212.6" r="300" /> 
</g>
<g style="fill:#840000; fill-opacity:1.0; 
stroke:#840000; stroke-width:39.3701; stroke-opacity:1; 
stroke-linecap:round; stroke-linejoin:round;">
</g>
<g style="fill:#840000; fill-opacity:1.0; 
stroke:#840000; stroke-width:98.4252; stroke-opacity:1; 
stroke-linecap:round; stroke-linejoin:round;">
</g>
<g style="fill:#840000; fill-opacity:0.0; 
stroke:#840000; stroke-width:98.4252; stroke-opacity:1; 
stroke-linecap:round; stroke-linejoin:round;">
<path d="M7529 6212
L8929 6212
" />
<path d="M12329 1912
L11821 1604
" />
<path d="M12329 7112
L12329 1912
" />
<path d="M9829 7112
L12329 7112
" />
<path d="M8929 6212
L9829 7112
" />
<path d="M11821 1604
L11511 1604
" />
<path d="M7529 5212
L7429 5212
" />
<path d="M7429 5212
L6929 4712
" />
<path d="M6929 4712
L6129 4712
" />
<path d="M6129 4712
L6029 4612
" />
<path d="M6029 4612
L6029 2312
" />
<path d="M6029 2312
L6429 1712
" />
<path d="M6429 1712
L9529 1712
" />
<path d="M9529 1712
L10021 2604
" />
<path d="M10021 2604
L11511 2604
" />
<path d="M7529 4212
L7429 4212
" />
<path d="M7429 4212
L7029 3812
" />
<path d="M7029 3812
L7029 2412
" />
<path d="M7029 2412
L8829 2412
" />
<path d="M8829 2412
L10021 3604
" />
<path d="M10021 3604
L11511 3604
" />
<path d="M9221 4604
L11511 4604
" />
<path d="M9129 4512
L9221 4604
" />
<path d="M9129 3912
L9129 4512
" />
<path d="M8429 3212
L9129 3912
" />
<path d="M7529 3212
L8429 3212
" />
<path d="M6529 3212
L6529 2212
" />
<path d="M12121 5604
L11511 5604
" />
<path d="M12129 5612
L12121 5604
" />
<path d="M12129 3112
L12129 5612
" />
<path d="M10029 3112
L12129 3112
" />
<path d="M9029 2112
L10029 3112
" />
<path d="M6629 2112
L9029 2112
" />
<path d="M6529 2212
L6629 2112
" />
<path d="M6529 4212
L6829 4212
" />
<path d="M6829 4212
L7329 4712
" />
<path d="M7329 4712
L8529 4712
" />
<path d="M8529 4712
L10421 6604
" />
<path d="M10421 6604
L11511 6604
" />
<path d="M6529 5212
L6529 5312
" />
<path d="M6529 5312
L7029 5812
" />
<path d="M7029 5812
L7029 7612
" />
<path d="M7029 7612
L7037 7604
" />
<path d="M7037 7604
L11511 7604
" />
<path d="M6529 6212
L6529 8312
" />
<path d="M6821 8604
L11511 8604
" />
<path d="M6529 8312
L6821 8604
" />
</g>
<g style="fill:#FFFFFF; fill-opacity:0.0; 
stroke:#FFFFFF; stroke-width:98.4252; stroke-opacity:1; 
stroke-linecap:round; stroke-linejoin:round;">
</g>
<g style="fill:#FFFFFF; fill-opacity:1.0; 
stroke:#FFFFFF; stroke-width:0; stroke-opacity:1; 
stroke-linecap:round; stroke-linejoin:round;">
<circle cx="11511.2" cy="1604.33" r="200" /> 
</g>
<g style="fill:#FFFFFF; fill-opacity:1.0; 
stroke:#FFFFFF; stroke-width:39.3701; stroke-opacity:1; 
stroke-linecap:round; stroke-linejoin:round;">
</g>
<g style="fill:#FFFFFF; fill-opacity:1.0; 
stroke:#FFFFFF; stroke-width:0; stroke-opacity:1; 
stroke-linecap:round; stroke-linejoin:round;">
<circle cx="11511.2" cy="2604.33" r="200" /> 
</g>
<g style="fill:#FFFFFF; fill-opacity:1.0; 
stroke:#FFFFFF; stroke-width:39.3701; stroke-opacity:1; 
stroke-linecap:round; stroke-linejoin:round;">
</g>
<g style="fill:#FFFFFF; fill-opacity:1.0; 
stroke:#FFFFFF; stroke-width:0; stroke-opacity:1; 
stroke-linecap:round; stroke-linejoin:round;">
<circle cx="11511.2" cy="3604.33" r="200" /> 
</g>
<g style="fill:#FFFFFF; fill-opacity:1.0; 
stroke:#FFFFFF; stroke-width:39.3701; stroke-opacity:1; 
stroke-linecap:round; stroke-linejoin:round;">
</g>
<g style="fill:#FFFFFF; fill-opacity:1.0; 
stroke:#FFFFFF; stroke-width:0; stroke-opacity:1; 
stroke-linecap:round; stroke-linejoin:round;">
<circle cx="11511.2" cy="4604.33" r="200" /> 
</g>
<g style="fill:#FFFFFF; fill-opacity:1.0; 
stroke:#FFFFFF; stroke-width:39.3701; stroke-opacity:1; 
stroke-linecap:round; stroke-linejoin:round;">
</g>
<g style="fill:#FFFFFF; fill-opacity:1.0; 
stroke:#FFFFFF; stroke-width:0; stroke-opacity:1; 
stroke-linecap:round; stroke-linejoin:round;">
<circle cx="11511.2" cy="5604.33" r="200" /> 
</g>
<g style="fill:#FFFFFF; fill-opacity:1.0; 
stroke:#FFFFFF; stroke-width:39.3701; stroke-opacity:1; 
stroke-linecap:round; stroke-linejoin:round;">
</g>
<g style="fill:#FFFFFF; fill-opacity:1.0; 
stroke:#FFFFFF; stroke-width:0; stroke-opacity:1; 
stroke-linecap:round; stroke-linejoin:round;">
<circle cx="11511.2" cy="6604.33" r="200" /> 
</g>
<g style="fill:#FFFFFF; fill-opacity:1.0; 
stroke:#FFFFFF; stroke-width:39.3701; stroke-opacity:1; 
stroke-linecap:round; stroke-linejoin:round;">
</g>
<g style="fill:#FFFFFF; fill-opacity:1.0; 
stroke:#FFFFFF; stroke-width:0; stroke-opacity:1; 
stroke-linecap:round; stroke-linejoin:round;">
<circle cx="11511.2" cy="7604.33" r="200" /> 
</g>
<g style="fill:#FFFFFF; fill-opacity:1.0; 
stroke:#FFFFFF; stroke-width:39.3701; stroke-opacity:1; 
stroke-linecap:round; stroke-linejoin:round;">
</g>
<g style="fill:#FFFFFF; fill-opacity:1.0; 
stroke:#FFFFFF; stroke-width:0; stroke-opacity:1; 
stroke-linecap:round; stroke-linejoin:round;">
<circle cx="11511.2" cy="8604.33" r="200" /> 
</g>
<g style="fill:#FFFFFF; fill-opacity:1.0; 
stroke:#FFFFFF; stroke-width:39.3701; stroke-opacity:1; 
stroke-linecap:round; stroke-linejoin:round;">
</g>
<g style="fill:#FFFFFF; fill-opacity:1.0; 
stroke:#FFFFFF; stroke-width:0; stroke-opacity:1; 
stroke-linecap:round; stroke-linejoin:round;">
<circle cx="7529.53" cy="5212.6" r="150" /> 
</g>
<g style="fill:#FFFFFF; fill-opacity:1.0; 
stroke:#FFFFFF; stroke-width:39.3701; stroke-opacity:1; 
stroke-linecap:round; stroke-linejoin:round;">
</g>
<g style="fill:#FFFFFF; fill-opacity:1.0; 
stroke:#FFFFFF; stroke-width:0; stroke-opacity:1; 
stroke-linecap:round; stroke-linejoin:round;">
<circle cx="7529.53" cy="4212.6" r="150" /> 
</g>
<g style="fill:#FFFFFF; fill-opacity:1.0; 
stroke:#FFFFFF; stroke-width:39.3701; stroke-opacity:1; 
stroke-linecap:round; stroke-linejoin:round;">
</g>
<g style="fill:#FFFFFF; fill-opacity:1.0; 
stroke:#FFFFFF; stroke-width:0; stroke-opacity:1; 
stroke-linecap:round; stroke-linejoin:round;">
<circle cx="7529.53" cy="3212.6" r="150" /> 
</g>
<g style="fill:#FFFFFF; fill-opacity:1.0; 
stroke:#FFFFFF; stroke-width:39.3701; stroke-opacity:1; 
stroke-linecap:round; stroke-linejoin:round;">
</g>
<g style="fill:#FFFFFF; fill-opacity:1.0; 
stroke:#FFFFFF; stroke-width:0; stroke-opacity:1; 
stroke-linecap:round; stroke-linejoin:round;">
<circle cx="6529.53" cy="3212.6" r="150" /> 
</g>
<g style="fill:#FFFFFF; fill-opacity:1.0; 
stroke:#FFFFFF; stroke-width:39.3701; stroke-opacity:1; 
stroke-linecap:round; stroke-linejoin:round;">
</g>
<g style="fill:#FFFFFF; fill-opacity:1.0; 
stroke:#FFFFFF; stroke-width:0; stroke-opacity:1; 
stroke-linecap:round; stroke-linejoin:round;">
<circle cx="6529.53" cy="4212.6" r="150" /> 
</g>
<g style="fill:#FFFFFF; fill-opacity:1.0; 
stroke:#FFFFFF; stroke-width:39.3701; stroke-opacity:1; 
stroke-linecap:round; stroke-linejoin:round;">
</g>
<g style="fill:#FFFFFF; fill-opacity:1.0; 
stroke:#FFFFFF; stroke-width:0; stroke-opacity:1; 
stroke-linecap:round; stroke-linejoin:round;">
<circle cx="6529.53" cy="5212.6" r="150" /> 
</g>
<g style="fill:#FFFFFF; fill-opacity:1.0; 
stroke:#FFFFFF; stroke-width:39.3701; stroke-opacity:1; 
stroke-linecap:round; stroke-linejoin:round;">
</g>
<g style="fill:#FFFFFF; fill-opacity:1.0; 
stroke:#FFFFFF; stroke-width:0; stroke-opacity:1; 
stroke-linecap:round; stroke-linejoin:round;">
<circle cx="6529.53" cy="6212.6" r="150" /> 
</g>
<g style="fill:#FFFFFF; fill-opacity:1.0; 
stroke:#FFFFFF; stroke-width:39.3701; stroke-opacity:1; 
stroke-linecap:round; stroke-linejoin:round;">
</g>
<g style="fill:#FFFFFF; fill-opacity:1.0; 
stroke:#FFFFFF; stroke-width:0; stroke-opacity:1; 
stroke-linecap:round; stroke-linejoin:round;">
<circle cx="7529.53" cy="6212.6" r="150" /> 
</g>
<g style="fill:#FFFFFF; fill-opacity:1.0; 
stroke:#FFFFFF; stroke-width:39.3701; stroke-opacity:1; 
stroke-linecap:round; stroke-linejoin:round;">
</g>
<g style="fill:#000000; fill-opacity:1.0; 
stroke:#000000; stroke-width:39.3701; stroke-opacity:1; 
stroke-linecap:round; stroke-linejoin:round;">
</g>
<g style="fill:#008484; fill-opacity:1.0; 
stroke:#008484; stroke-width:39.3701; stroke-opacity:1; 
stroke-linecap:round; stroke-linejoin:round;">
</g>
<g style="fill:#008484; fill-opacity:0.0; 
stroke:#008484; stroke-width:39.3701; stroke-opacity:1; 
stroke-linecap:round; stroke-linejoin:round;">
</g>
<g style="fill:#008484; fill-opacity:0.0; 
stroke:#008484; stroke-width:118.11; stroke-opacity:1; 
stroke-linecap:round; stroke-linejoin:round;">
<path d="M529 8689
L726 9279
L923 8689
" />
<path d="M1232 8689
L1288 8689
L1345 8717
L1373 8745
L1401 8801
L1429 8914
L1429 9054
L1401 9167
L1373 9223
L1345 9251
L1288 9279
L1232 9279
L1176 9251
L1148 9223
L1120 9167
L1092 9054
L1092 8914
L1120 8801
L1148 8745
L1176 8717
L1232 8689
" />
<path d="M1682 9223
L1710 9251
L1682 9279
L1654 9251
L1682 9223
L1682 9279
" />
<path d="M2273 9279
L1935 9279
" />
<path d="M2104 9279
L2104 8689
L2048 8773
L1991 8829
L1935 8857
" />
</g>
<g style="fill:#008484; fill-opacity:0.0; 
stroke:#008484; stroke-width:78.7402; stroke-opacity:1; 
stroke-linecap:round; stroke-linejoin:round;">
<path d="M9989 1655
L9959 1640
L9914 1640
L9869 1655
L9839 1685
L9824 1715
L9809 1775
L9809 1820
L9824 1880
L9839 1910
L9869 1940
L9914 1955
L9944 1955
L9989 1940
L10004 1925
L10004 1820
L9944 1820
" />
<path d="M10139 1955
L10139 1640
L10319 1955
L10319 1640
" />
<path d="M10469 1955
L10469 1640
L10544 1640
L10589 1655
L10619 1685
L10634 1715
L10649 1775
L10649 1820
L10634 1880
L10619 1910
L10589 1940
L10544 1955
L10469 1955
" />
<path d="M10184 2725
L10169 2740
L10124 2755
L10094 2755
L10049 2740
L10019 2710
L10004 2680
L9989 2620
L9989 2575
L10004 2515
L10019 2485
L10049 2455
L10094 2440
L10124 2440
L10169 2455
L10184 2470
" />
<path d="M10319 2590
L10424 2590
" />
<path d="M10469 2755
L10319 2755
L10319 2440
L10469 2440
" />
<path d="M9824 3740
L9869 3755
L9944 3755
L9974 3740
L9989 3725
L10004 3695
L10004 3665
L9989 3635
L9974 3620
L9944 3605
L9884 3590
L9854 3575
L9839 3560
L9824 3530
L9824 3500
L9839 3470
L9854 3455
L9884 3440
L9959 3440
L10004 3455
" />
<path d="M10319 3725
L10304 3740
L10259 3755
L10229 3755
L10184 3740
L10154 3710
L10139 3680
L10124 3620
L10124 3575
L10139 3515
L10154 3485
L10184 3455
L10229 3440
L10259 3440
L10304 3455
L10319 3470
" />
<path d="M10454 3755
L10454 3440
" />
<path d="M10634 3755
L10499 3575
" />
<path d="M10634 3440
L10454 3620
" />
<path d="M9734 4755
L9734 4440
L9839 4665
L9944 4440
L9944 4755
" />
<path d="M10094 4755
L10094 4440
" />
<path d="M10229 4740
L10274 4755
L10349 4755
L10379 4740
L10394 4725
L10409 4695
L10409 4665
L10394 4635
L10379 4620
L10349 4605
L10289 4590
L10259 4575
L10244 4560
L10229 4530
L10229 4500
L10244 4470
L10259 4455
L10289 4440
L10364 4440
L10409 4455
" />
<path d="M10604 4440
L10664 4440
L10694 4455
L10724 4485
L10739 4545
L10739 4650
L10724 4710
L10694 4740
L10664 4755
L10604 4755
L10574 4740
L10544 4710
L10529 4650
L10529 4545
L10544 4485
L10574 4455
L10604 4440
" />
<path d="M9907 5755
L9907 5440
" />
<path d="M10237 5755
L10132 5605
" />
<path d="M10057 5755
L10057 5440
L10177 5440
L10207 5455
L10222 5470
L10237 5500
L10237 5545
L10222 5575
L10207 5590
L10177 5605
L10057 5605
" />
<path d="M10581 5785
L10551 5770
L10521 5740
L10476 5695
L10447 5680
L10417 5680
" />
<path d="M10432 5755
L10402 5740
L10372 5710
L10357 5650
L10357 5545
L10372 5485
L10402 5455
L10432 5440
L10491 5440
L10521 5455
L10551 5485
L10566 5545
L10566 5650
L10551 5710
L10521 5740
L10491 5755
L10432 5755
" />
<path d="M9734 6655
L9734 6340
L9839 6565
L9944 6340
L9944 6655
" />
<path d="M10154 6340
L10214 6340
L10244 6355
L10274 6385
L10289 6445
L10289 6550
L10274 6610
L10244 6640
L10214 6655
L10154 6655
L10124 6640
L10094 6610
L10079 6550
L10079 6445
L10094 6385
L10124 6355
L10154 6340
" />
<path d="M10409 6640
L10454 6655
L10529 6655
L10559 6640
L10574 6625
L10589 6595
L10589 6565
L10574 6535
L10559 6520
L10529 6505
L10469 6490
L10439 6475
L10424 6460
L10409 6430
L10409 6400
L10424 6370
L10439 6355
L10469 6340
L10544 6340
L10589 6355
" />
<path d="M10724 6655
L10724 6340
" />
<path d="M10012 7725
L9997 7740
L9952 7755
L9922 7755
L9877 7740
L9847 7710
L9832 7680
L9817 7620
L9817 7575
L9832 7515
L9847 7485
L9877 7455
L9922 7440
L9952 7440
L9997 7455
L10012 7470
" />
<path d="M10132 7740
L10177 7755
L10252 7755
L10282 7740
L10297 7725
L10312 7695
L10312 7665
L10297 7635
L10282 7620
L10252 7605
L10192 7590
L10162 7575
L10147 7560
L10132 7530
L10132 7500
L10147 7470
L10162 7455
L10192 7440
L10267 7440
L10312 7455
" />
<path d="M10447 7755
L10447 7440
L10626 7755
L10626 7440
" />
<path d="M9809 8440
L9914 8755
L10019 8440
" />
<path d="M10304 8725
L10289 8740
L10244 8755
L10214 8755
L10169 8740
L10139 8710
L10124 8680
L10109 8620
L10109 8575
L10124 8515
L10139 8485
L10169 8455
L10214 8440
L10244 8440
L10289 8455
L10304 8470
" />
<path d="M10619 8725
L10604 8740
L10559 8755
L10529 8755
L10484 8740
L10454 8710
L10439 8680
L10424 8620
L10424 8575
L10439 8515
L10454 8485
L10484 8455
L10529 8440
L10559 8440
L10604 8455
L10619 8470
" />
</g>
<g style="fill:#008484; fill-opacity:0.0; 
stroke:#008484; stroke-width:59.0551; stroke-opacity:1; 
stroke-linecap:round; stroke-linejoin:round;">
<path d="M12011 2104
L12011 9104
" />
<path d="M12011 9104
L11011 9104
" />
<path d="M11011 9104
L11011 2104
" />
<path d="M12121 994
L12121 1604
" />
<path d="M12011 2104
L11011 2104
" />
<path d="M10900 1604
L10900 994
" />
<path d="M10900 994
L12121 994
" />
</g>
<g style="fill:#008484; fill-opacity:0.0; 
stroke:#008484; stroke-width:39.3701; stroke-opacity:1; 
stroke-linecap:round; stroke-linejoin:round;">
<path d="M8029 6712
L8529 6712
" />
<path d="M8529 2712
L8029 2712
" />
<path d="M8029 2712
L8529 2712
" />
<path d="M8029 2712
L529 2712
" />
<path d="M529 2712
L529 6712
" />
<path d="M529 6712
L8029 6712
" />
<path d="M8529 6712
L8529 2712
" />
</g>
<g style="fill:#C2C200; fill-opacity:0.0; 
stroke:#C2C200; stroke-width:39.3701; stroke-opacity:1; 
stroke-linecap:round; stroke-linejoin:round;">
</g>
<g style="fill:#C2C200; fill-opacity:0.0; 
stroke:#C2C200; stroke-width:49.2126; stroke-opacity:1; 
stroke-linecap:round; stroke-linejoin:round;">
<path d="M10384 1201
L10384 1004
L10459 1004
L10477 1014
L10487 1023
L10496 1042
L10496 1070
L10487 1089
L10477 1098
L10459 1107
L10384 1107
" />
<path d="M10684 1201
L10571 1201
" />
<path d="M10627 1201
L10627 1004
L10609 1032
L10590 1051
L10571 1061
" />
<path d="M3379 6904
L3379 7064
L3388 7082
L3398 7092
L3417 7101
L3454 7101
L3473 7092
L3482 7082
L3492 7064
L3492 6904
" />
<path d="M3688 7101
L3576 7101
" />
<path d="M3632 7101
L3632 6904
L3613 6932
L3595 6951
L3576 6961
" />
</g>
<g style="fill:#008484; fill-opacity:0.0; 
stroke:#008484; stroke-width:49.2126; stroke-opacity:1; 
stroke-linecap:round; stroke-linejoin:round;">
<path d="M5868 3414
L5671 3414
" />
<path d="M5868 3207
L5774 3273
" />
<path d="M5868 3320
L5671 3320
L5671 3245
L5681 3226
L5690 3217
L5709 3207
L5737 3207
L5756 3217
L5765 3226
L5774 3245
L5774 3320
" />
<path d="M5887 2992
L5877 3011
L5859 3029
L5831 3057
L5821 3076
L5821 3095
" />
<path d="M5868 3086
L5859 3104
L5840 3123
L5802 3132
L5737 3132
L5699 3123
L5681 3104
L5671 3086
L5671 3048
L5681 3029
L5699 3011
L5737 3001
L5802 3001
L5840 3011
L5859 3029
L5868 3048
L5868 3086
" />
<path d="M5868 4521
L5671 4521
L5812 4456
L5671 4390
L5868 4390
" />
<path d="M5671 4259
L5671 4221
L5681 4203
L5699 4184
L5737 4175
L5802 4175
L5840 4184
L5859 4203
L5868 4221
L5868 4259
L5859 4278
L5840 4296
L5802 4306
L5737 4306
L5699 4296
L5681 4278
L5671 4259
" />
<path d="M5859 4100
L5868 4071
L5868 4025
L5859 4006
L5849 3997
L5831 3987
L5812 3987
L5793 3997
L5784 4006
L5774 4025
L5765 4062
L5756 4081
L5746 4090
L5727 4100
L5709 4100
L5690 4090
L5681 4081
L5671 4062
L5671 4015
L5681 3987
" />
<path d="M5868 3903
L5671 3903
" />
<path d="M5849 5348
L5859 5357
L5868 5386
L5868 5404
L5859 5432
L5840 5451
L5821 5461
L5784 5470
L5756 5470
L5718 5461
L5699 5451
L5681 5432
L5671 5404
L5671 5386
L5681 5357
L5690 5348
" />
<path d="M5859 5273
L5868 5245
L5868 5198
L5859 5179
L5849 5170
L5831 5161
L5812 5161
L5793 5170
L5784 5179
L5774 5198
L5765 5236
L5756 5254
L5746 5264
L5727 5273
L5709 5273
L5690 5264
L5681 5254
L5671 5236
L5671 5189
L5681 5161
" />
<path d="M5868 5076
L5671 5076
L5868 4964
L5671 4964
" />
<path d="M5671 6475
L5868 6409
L5671 6343
" />
<path d="M5849 6165
L5859 6175
L5868 6203
L5868 6221
L5859 6250
L5840 6268
L5821 6278
L5784 6287
L5756 6287
L5718 6278
L5699 6268
L5681 6250
L5671 6221
L5671 6203
L5681 6175
L5690 6165
" />
<path d="M5849 5968
L5859 5978
L5868 6006
L5868 6025
L5859 6053
L5840 6071
L5821 6081
L5784 6090
L5756 6090
L5718 6081
L5699 6071
L5681 6053
L5671 6025
L5671 6006
L5681 5978
L5690 5968
" />
<path d="M8368 3521
L8171 3521
L8312 3456
L8171 3390
L8368 3390
" />
<path d="M8368 3296
L8171 3296
" />
<path d="M8359 3212
L8368 3184
L8368 3137
L8359 3118
L8349 3109
L8331 3100
L8312 3100
L8293 3109
L8284 3118
L8274 3137
L8265 3175
L8256 3193
L8246 3203
L8227 3212
L8209 3212
L8190 3203
L8181 3193
L8171 3175
L8171 3128
L8181 3100
" />
<path d="M8171 2978
L8171 2940
L8181 2922
L8199 2903
L8237 2893
L8302 2893
L8340 2903
L8359 2922
L8368 2940
L8368 2978
L8359 2997
L8340 3015
L8302 3025
L8237 3025
L8199 3015
L8181 2997
L8171 2978
" />
<path d="M8359 4465
L8368 4437
L8368 4390
L8359 4371
L8349 4362
L8331 4353
L8312 4353
L8293 4362
L8284 4371
L8274 4390
L8265 4428
L8256 4446
L8246 4456
L8227 4465
L8209 4465
L8190 4456
L8181 4446
L8171 4428
L8171 4381
L8181 4353
" />
<path d="M8349 4156
L8359 4165
L8368 4193
L8368 4212
L8359 4240
L8340 4259
L8321 4268
L8284 4278
L8256 4278
L8218 4268
L8199 4259
L8181 4240
L8171 4212
L8171 4193
L8181 4165
L8190 4156
" />
<path d="M8368 4071
L8171 4071
" />
<path d="M8368 3959
L8256 4043
" />
<path d="M8171 3959
L8284 4071
" />
<path d="M8349 5240
L8359 5250
L8368 5278
L8368 5296
L8359 5325
L8340 5343
L8321 5353
L8284 5362
L8256 5362
L8218 5353
L8199 5343
L8181 5325
L8171 5296
L8171 5278
L8181 5250
L8190 5240
" />
<path d="M8265 5156
L8265 5090
" />
<path d="M8368 5062
L8368 5156
L8171 5156
L8171 5062
" />
<path d="M8181 6362
L8171 6381
L8171 6409
L8181 6437
L8199 6456
L8218 6465
L8256 6475
L8284 6475
L8321 6465
L8340 6456
L8359 6437
L8368 6409
L8368 6390
L8359 6362
L8349 6353
L8284 6353
L8284 6390
" />
<path d="M8368 6268
L8171 6268
L8368 6156
L8171 6156
" />
<path d="M8368 6062
L8171 6062
L8171 6015
L8181 5987
L8199 5968
L8218 5959
L8256 5950
L8284 5950
L8321 5959
L8340 5968
L8359 5987
L8368 6015
L8368 6062
" />
</g>
<g style="fill:#000000; fill-opacity:0.0; 
stroke:#000000; stroke-width:49.2126; stroke-opacity:1; 
stroke-linecap:round; stroke-linejoin:round;">
</g>
<g style="fill:#C2C200; fill-opacity:0.0; 
stroke:#C2C200; stroke-width:49.2126; stroke-opacity:1; 
stroke-linecap:round; stroke-linejoin:round;">
</g>
<g style="fill:#C2C200; fill-opacity:0.0; 
stroke:#C2C200; stroke-width:59.0551; stroke-opacity:1; 
stroke-linecap:round; stroke-linejoin:round;">
<path d="M12529 9712
L12529 712
" />
<path d="M29 9712
L12529 9712
" />
<path d="M29 9212
L29 9712
" />
<path d="M29 712
L29 9212
" />
<path d="M12529 712
L29 712
" />
</g> 
</svg>
